<?xml version="1.0" encoding="UTF-8" standalone="no"?>
<svg
   xmlns:dc="http://purl.org/dc/elements/1.1/"
   xmlns:cc="http://creativecommons.org/ns#"
   xmlns:rdf="http://www.w3.org/1999/02/22-rdf-syntax-ns#"
   xmlns:svg="http://www.w3.org/2000/svg"
   xmlns="http://www.w3.org/2000/svg"
   xmlns:sodipodi="http://sodipodi.sourceforge.net/DTD/sodipodi-0.dtd"
   xmlns:inkscape="http://www.inkscape.org/namespaces/inkscape"
   height="368pt"
   viewBox="0 0 368 368"
   width="368pt"
   version="1.1"
   id="svg6"
   sodipodi:docname="iid2019_logo.svg"
   inkscape:version="0.92.2 5c3e80d, 2017-08-06"
   inkscape:export-filename="/Users/derek/Documents/graduate/iid2019_logo/iid2019_logo.png"
   inkscape:export-xdpi="160"
   inkscape:export-ydpi="160">
  <metadata
     id="metadata12">
    <rdf:RDF>
      <cc:Work
         rdf:about="">
        <dc:format>image/svg+xml</dc:format>
        <dc:type
           rdf:resource="http://purl.org/dc/dcmitype/StillImage" />
      </cc:Work>
    </rdf:RDF>
  </metadata>
  <defs
     id="defs10" />
  <sodipodi:namedview
     pagecolor="#ffffff"
     bordercolor="#666666"
     borderopacity="1"
     objecttolerance="10"
     gridtolerance="10"
     guidetolerance="10"
     inkscape:pageopacity="0"
     inkscape:pageshadow="2"
     inkscape:window-width="1552"
     inkscape:window-height="858"
     id="namedview8"
     showgrid="false"
     inkscape:zoom="0.96195652"
     inkscape:cx="165.66414"
     inkscape:cy="249.47686"
     inkscape:window-x="57"
     inkscape:window-y="61"
     inkscape:window-maximized="0"
     inkscape:current-layer="svg6" />
  <path
     d="m247.28125 72.71875c-22-38.640625-63.601562-64.71875-111.28125-64.71875-70.71875 0-128 57.28125-128 128 0 47.679688 26.078125 89.28125 64.71875 111.28125 10.640625 6.078125 22.242188 10.640625 34.5625 13.4375 9.199219 2.160156 18.878906 3.28125 28.71875 3.28125 70.71875 0 128-57.28125 128-128 0-9.839844-1.121094-19.519531-3.28125-28.71875-2.796875-12.320312-7.359375-23.921875-13.4375-34.5625zm0 0"
     id="path2"
     fill="#cce4ff"
     style="fill:#89c4f4;fill-opacity:1" />
  <path
     d="m360 0c-4.425781 0-8 3.574219-8 8v160.230469c-11.585938-21.796875-29.023438-40.398438-50.902344-53.328125-11.683594-19.8125-28.203125-36.335938-48-48-24.410156-41.300782-69.042968-66.902344-117.097656-66.902344-74.992188 0-136 61.007812-136 136v224c0 4.425781 3.574219 8 8 8s8-3.574219 8-8v-160.230469c11.585938 21.796875 29.023438 40.398438 50.902344 53.328125 11.671875 19.804688 28.195312 36.316406 48 48 24.410156 41.300782 69.042968 66.902344 117.097656 66.902344 74.992188 0 136-61.007812 136-136v-224c0-4.425781-3.574219-8-8-8zm-281.375 241.34375c-9.546875-17.480469-14.625-37.238281-14.625-57.34375 0-66.167969 53.832031-120 120-120 20.097656 0 39.855469 5.078125 57.351562 14.625 3.25 5.949219 5.960938 12.167969 8.144532 18.597656-5.761719-.742187-11.59375-1.222656-17.496094-1.222656-74.992188 0-136 61.007812-136 136 0 5.910156.480469 11.742188 1.222656 17.496094-6.421875-2.183594-12.636718-4.886719-18.597656-8.152344zm177.375-105.34375c0 66.167969-53.832031 120-120 120-7.425781 0-14.703125-.855469-21.808594-2.191406-1.335937-7.105469-2.191406-14.382813-2.191406-21.808594 0-66.167969 53.832031-120 120-120 7.414062 0 14.679688.855469 21.808594 2.191406 1.335937 7.105469 2.191406 14.382813 2.191406 21.808594zm-129.351562 153.367188c-3.25-5.953126-5.960938-12.167969-8.144532-18.597657 5.761719.75 11.59375 1.230469 17.496094 1.230469 74.992188 0 136-61.007812 136-136 0-5.910156-.480469-11.742188-1.222656-17.496094 6.421875 2.175782 12.636718 4.886719 18.597656 8.152344 9.546875 17.480469 14.625 37.238281 14.625 57.34375 0 66.167969-53.832031 120-120 120-20.105469 0-39.863281-5.078125-57.351562-14.632812zm144.765624-187.511719c-1.375-.414063-2.765624-.734375-4.15625-1.101563-.371093-1.386718-.699218-2.785156-1.105468-4.160156 1.808594 1.695312 3.558594 3.445312 5.261718 5.261719zm-255.414062 34.144531c0-66.167969 53.832031-120 120-120 33.441406 0 64.984375 14.078125 87.40625 37.894531-12.710938-3.847656-25.992188-5.894531-39.40625-5.894531-74.992188 0-136 61.007812-136 136 0 13.414062 2.046875 26.695312 5.886719 39.40625-23.808594-22.414062-37.886719-53.964844-37.886719-87.40625zm80.585938 130.144531c1.375.414063 2.765624.734375 4.15625 1.101563.371093 1.386718.699218 2.785156 1.105468 4.160156-1.808594-1.695312-3.558594-3.445312-5.261718-5.261719zm135.414062 85.855469c-33.441406 0-64.984375-14.078125-87.40625-37.886719 12.710938 3.839844 25.992188 5.886719 39.40625 5.886719 74.992188 0 136-61.007812 136-136 0-13.414062-2.046875-26.695312-5.886719-39.40625 23.808594 22.414062 37.886719 53.964844 37.886719 87.40625 0 66.167969-53.832031 120-120 120zm0 0"
     fill="#007aff"
     id="path4"
     style="fill:#2c82c9;fill-opacity:1" />
</svg>
